<svg fill="none" xmlns="http://www.w3.org/2000/svg" viewBox="0 0 126 126">
    <rect x="2" y="2" width="122" height="122" rx="2" fill="#F8F8FE" stroke="#CDB1FB" stroke-width="4"/>
    <mask id="a" fill="#fff">
        <path d="M74 48.8h9.4c1.4 0 2.6 1.3 2.6 2.9v28.5c0 1.5-1.2 2.8-2.6 2.8H41.6c-1.4 0-2.6-1.3-2.6-2.8V51.7c0-1.6 1.2-2.9 2.6-2.9H51l2-5.7q.5-1 1.5-1.1h16.2q1 0 1.5 1.1z"/>
    </mask>
    <path d="M74 48.8h9.4c1.4 0 2.6 1.3 2.6 2.9v28.5c0 1.5-1.2 2.8-2.6 2.8H41.6c-1.4 0-2.6-1.3-2.6-2.8V51.7c0-1.6 1.2-2.9 2.6-2.9H51l2-5.7q.5-1 1.5-1.1h16.2q1 0 1.5 1.1z" stroke="#9B63F8" stroke-width="6" mask="url(#a)"/>
    <mask id="b" fill="#fff">
        <path d="M63 53a12 12 0 1 0 0 24 12 12 0 0 0 0-24"/>
    </mask>
    <path d="M63 53a12 12 0 1 0 0 24 12 12 0 0 0 0-24Z" stroke="#9B63F8" stroke-width="6" mask="url(#b)"/>
    <g fill="#9B63F8">
        <path d="M61.7 59.1h2.8v12.5h-2.8z"/>
        <path d="M57.4 67v-3.2h11.4V67z"/>
    </g>
</svg>
